<svg width="468" height="446" viewBox="0 0 468 446" fill="none" xmlns="http://www.w3.org/2000/svg">
<path d="M222.8 440.6C343.088 440.6 440.6 343.088 440.6 222.8C440.6 102.512 343.088 5 222.8 5C102.512 5 5 102.512 5 222.8C5 343.088 102.512 440.6 222.8 440.6Z" fill="#D81F26"/>
<path d="M222.8 445.6C163.3 445.6 107.3 422.4 65.3 380.3C23.2 338.2 0 282.3 0 222.8C0 163.3 23.2 107.3 65.3 65.3C107.4 23.2 163.3 0 222.8 0C282.3 0 338.3 23.2 380.3 65.3C422.4 107.4 445.6 163.3 445.6 222.8C445.6 282.3 422.4 338.3 380.3 380.3C338.3 422.4 282.3 445.6 222.8 445.6ZM222.8 10C105.5 10 10 105.4 10 222.8C10 340.2 105.5 435.6 222.8 435.6C340.1 435.6 435.6 340.1 435.6 222.8C435.6 105.5 340.2 10 222.8 10Z" fill="#3A1811"/>
<path d="M222.8 424.7C221.4 424.7 220.3 423.6 220.3 422.2C220.3 420.8 221.4 419.7 222.8 419.7C331.4 419.7 419.7 331.4 419.7 222.8C419.7 221.4 420.8 220.3 422.2 220.3C423.6 220.3 424.7 221.4 424.7 222.8C424.7 334.1 334.2 424.7 222.8 424.7V424.7ZM404.6 143.1C403.6 143.1 402.7 142.6 402.3 141.6C396.9 129.7 390.2 118.2 382.5 107.5C371.4 92.1999 358.2 78.4999 343.2 66.8999C329.1 55.9999 313.7 47.0999 297.3 40.3999C296 39.8999 295.4 38.3999 295.9 37.0999C296.4 35.7999 297.9 35.1999 299.2 35.6999C316 42.5999 331.9 51.6999 346.3 62.8999C361.6 74.7999 375.2 88.7999 386.6 104.5C394.5 115.4 401.3 127.2 406.9 139.4C407.5 140.7 406.9 142.1 405.7 142.7C405.3 143 404.9 143.1 404.6 143.1V143.1Z" fill="#3A1811"/>
<path d="M222.8 395.3C318.069 395.3 395.3 318.069 395.3 222.8C395.3 127.531 318.069 50.3 222.8 50.3C127.531 50.3 50.3 127.531 50.3 222.8C50.3 318.069 127.531 395.3 222.8 395.3Z" fill="#FAF5AE"/>
<path d="M222.8 400.3C124.9 400.3 45.3 320.7 45.3 222.8C45.3 124.9 124.9 45.3 222.8 45.3C320.7 45.3 400.3 124.9 400.3 222.8C400.3 320.6 320.7 400.3 222.8 400.3ZM222.8 55.3C130.5 55.3 55.3 130.4 55.3 222.8C55.3 315.2 130.4 390.3 222.8 390.3C315.2 390.3 390.3 315.2 390.3 222.8C390.3 130.4 315.2 55.3 222.8 55.3Z" fill="#3A1811"/>
<path d="M222.8 377.3C221.4 377.3 220.3 376.2 220.3 374.8C220.3 373.4 221.4 372.3 222.8 372.3C255.5 372.3 286.6 361.9 312.6 342.3C313.7 341.5 315.3 341.7 316.1 342.8C316.9 343.9 316.7 345.5 315.6 346.3C288.7 366.6 256.6 377.3 222.8 377.3ZM342 319.7C341.5 319.7 340.9 319.5 340.4 319.2C339.3 318.3 339.1 316.8 340 315.7C361.1 289.1 372.3 257 372.3 222.9C372.3 191 362.4 160.6 343.6 134.9C342.8 133.8 343 132.2 344.1 131.4C345.2 130.6 346.8 130.8 347.6 131.9C367 158.5 377.2 189.9 377.2 222.9C377.2 258.1 365.7 291.3 343.8 318.8C343.5 319.3 342.8 319.7 342 319.7V319.7ZM140.5 97.3999C139.7 97.3999 138.9 97 138.4 96.3C137.7 95.1 138 93.6 139.1 92.8C164 76.7 193 68.2 222.8 68.2C242.7 68.2 262.1 71.9 280.4 79.3C281.7 79.8 282.3 81.3 281.8 82.6C281.3 83.9 279.8 84.5 278.5 84C260.8 76.9 242 73.3 222.8 73.3C193.9 73.3 165.9 81.5 141.8 97.1C141.4 97.3 140.9 97.3999 140.5 97.3999V97.3999Z" fill="#3A1811"/>
<path d="M222.8 346.1C290.897 346.1 346.1 290.897 346.1 222.8C346.1 154.703 290.897 99.5 222.8 99.5C154.703 99.5 99.5 154.703 99.5 222.8C99.5 290.897 154.703 346.1 222.8 346.1Z" fill="#D81F26"/>
<path d="M222.8 351.1C152 351.1 94.5 293.5 94.5 222.8C94.5 152.1 152.1 94.5 222.8 94.5C293.6 94.5 351.1 152.1 351.1 222.8C351.1 293.5 293.6 351.1 222.8 351.1ZM222.8 104.5C157.6 104.5 104.5 157.6 104.5 222.8C104.5 288 157.6 341.1 222.8 341.1C288 341.1 341.1 288 341.1 222.8C341.1 157.5 288.1 104.5 222.8 104.5V104.5Z" fill="#3A1811"/>
<path d="M222.8 329.5C197.6 329.5 173.2 320.6 154 304.4C152.9 303.5 152.8 301.9 153.7 300.9C154.6 299.8 156.2 299.7 157.2 300.6C175.5 316.1 198.8 324.6 222.8 324.6C245.2 324.6 266.5 317.5 284.3 303.9C301.5 290.8 314.4 272.2 320.4 251.6C323.1 242.3 324.5 232.7 324.5 222.9C324.5 221.5 325.6 220.4 327 220.4C328.4 220.4 329.5 221.5 329.5 222.9C329.5 233.1 328.1 243.3 325.2 253C318.8 274.7 305.4 294.2 287.3 307.9C268.6 322 246.3 329.5 222.8 329.5ZM307.5 164.6C306.7 164.6 306 164.2 305.5 163.6C292 144.7 272.2 131 250 124.8C248.7 124.4 247.9 123.1 248.3 121.7C248.7 120.4 250 119.6 251.4 120C274.8 126.5 295.4 140.9 309.7 160.7C310.5 161.8 310.2 163.4 309.1 164.2C308.5 164.4 308 164.6 307.5 164.6V164.6Z" fill="#3A1811"/>
<path d="M222.8 298.1C264.387 298.1 298.1 264.387 298.1 222.8C298.1 181.213 264.387 147.5 222.8 147.5C181.213 147.5 147.5 181.213 147.5 222.8C147.5 264.387 181.213 298.1 222.8 298.1Z" fill="#FAF5AE"/>
<path d="M222.8 303.1C178.5 303.1 142.5 267.1 142.5 222.8C142.5 178.5 178.5 142.5 222.8 142.5C267.1 142.5 303.1 178.5 303.1 222.8C303.1 267.1 267.1 303.1 222.8 303.1ZM222.8 152.4C184 152.4 152.5 183.9 152.5 222.7C152.5 261.5 184 293 222.8 293C261.6 293 293.1 261.5 293.1 222.7C293.1 183.9 261.6 152.4 222.8 152.4V152.4Z" fill="#3A1811"/>
<path d="M222.8 284C221.4 284 220.3 282.9 220.3 281.5C220.3 280.1 221.4 279 222.8 279C253.8 279 279.1 253.8 279.1 222.7C279.1 221.3 280.2 220.2 281.6 220.2C283 220.2 284.1 221.3 284.1 222.7C284.1 256.6 256.6 284 222.8 284ZM271.5 192.4C270.7 192.4 269.9 192 269.4 191.3C264.3 183.8 257.4 177.5 249.4 173.2C248.2 172.5 247.7 171 248.4 169.8C249.1 168.6 250.6 168.1 251.8 168.8C260.5 173.5 268 180.3 273.6 188.5C274.4 189.6 274.1 191.2 272.9 192C272.5 192.2 272 192.4 271.5 192.4V192.4Z" fill="#3A1811"/>
<path d="M222.8 258.2C242.351 258.2 258.2 242.351 258.2 222.8C258.2 203.249 242.351 187.4 222.8 187.4C203.249 187.4 187.4 203.249 187.4 222.8C187.4 242.351 203.249 258.2 222.8 258.2Z" fill="#BE1E2D"/>
<path d="M222.8 263.1C200.5 263.1 182.4 245 182.4 222.7C182.4 200.4 200.5 182.3 222.8 182.3C245.1 182.3 263.2 200.4 263.2 222.7C263.2 245 245.1 263.1 222.8 263.1ZM222.8 192.4C206.1 192.4 192.4 206 192.4 222.8C192.4 239.5 206 253.2 222.8 253.2C239.6 253.2 253.2 239.6 253.2 222.8C253.2 206 239.6 192.4 222.8 192.4Z" fill="#3A1811"/>
<path d="M447.5 230H230C226 230 222.8 226.8 222.8 222.8C222.8 218.8 226 215.6 230 215.6H447.5C451.5 215.6 454.7 218.8 454.7 222.8C454.6 226.7 451.4 230 447.5 230Z" fill="#A67A44"/>
<path d="M447.5 232.5H230C224.7 232.5 220.3 228.2 220.3 222.8C220.3 217.4 224.6 213.1 230 213.1H447.5C452.8 213.1 457.2 217.4 457.2 222.8C457.2 228.2 452.8 232.5 447.5 232.5ZM230 218.1C227.4 218.1 225.3 220.2 225.3 222.8C225.3 225.4 227.4 227.5 230 227.5H447.5C450.1 227.5 452.2 225.4 452.2 222.8C452.2 220.2 450.1 218.1 447.5 218.1H230Z" fill="#3A1811"/>
<path d="M440.1 215.6H391.5C389.1 215.6 388 212.7 389.7 211.1L411.5 191C412 190.6 412.6 190.3 413.3 190.3H461.9C464.3 190.3 465.4 193.2 463.7 194.8L441.9 214.9C441.4 215.3 440.8 215.6 440.1 215.6Z" fill="#00AEEF"/>
<path d="M440.1 218.1H391.5C389.4 218.1 387.5 216.8 386.7 214.9C385.9 213 386.4 210.7 388 209.3L409.8 189.2C410.7 188.3 412 187.8 413.3 187.8H461.9C464 187.8 465.9 189.1 466.7 191C467.5 192.9 467 195.2 465.4 196.6L443.6 216.7C442.7 217.6 441.4 218.1 440.1 218.1ZM413.3 192.8L391.5 212.9C391.5 212.9 391.4 213 391.5 213C391.5 213.1 391.5 213.1 391.6 213.1H440.3L462 193C462 193 462.1 192.9 462 192.9C462 192.8 462 192.8 461.9 192.8H413.3V192.8Z" fill="#3A1811"/>
<path d="M440.1 230H391.5C389.1 230 388 232.9 389.7 234.5L411.5 254.6C412 255 412.6 255.3 413.3 255.3H461.9C464.3 255.3 465.4 252.4 463.7 250.8L441.9 230.7C441.4 230.2 440.8 230 440.1 230Z" fill="#00AEEF"/>
<path d="M461.9 257.7H413.3C412 257.7 410.8 257.2 409.8 256.3L388 236.2C386.4 234.8 385.9 232.6 386.7 230.6C387.5 228.6 389.3 227.4 391.5 227.4H440.1C441.4 227.4 442.6 227.9 443.6 228.8L465.4 248.9C467 250.3 467.5 252.5 466.7 254.5C465.9 256.4 464 257.7 461.9 257.7ZM391.6 232.5C391.5 232.5 391.5 232.5 391.5 232.6V232.7L413.3 252.8H462C462.1 252.8 462.1 252.8 462.1 252.7V252.6L440.3 232.5H391.6V232.5Z" fill="#3A1811"/>
<path d="M400.4 226.2H298.1C296.7 226.2 295.6 225.1 295.6 223.7C295.6 222.3 296.7 221.2 298.1 221.2H400.3C401.7 221.2 402.8 222.3 402.8 223.7C402.9 225.1 401.8 226.2 400.4 226.2V226.2Z" fill="#3A1811"/>
<path d="M439.6 211.2H414.3C412.9 211.2 411.8 210.1 411.8 208.7C411.8 207.3 412.9 206.2 414.3 206.2H437.6L447.4 197.2C448.4 196.3 450 196.3 450.9 197.3C451.8 198.3 451.8 199.9 450.8 200.8L439.6 211.2V211.2Z" fill="#3A1811"/>
<path d="M437.7 238.8H414.3C412.9 238.8 411.8 237.7 411.8 236.3C411.8 234.9 412.9 233.8 414.3 233.8H437.7C439.1 233.8 440.2 234.9 440.2 236.3C440.2 237.7 439.1 238.8 437.7 238.8Z" fill="#3A1811"/>
</svg>
