<svg width="32" height="32" viewBox="0 0 32 32" fill="none" xmlns="http://www.w3.org/2000/svg">
<path d="M19.5312 20.8802C20.0831 20.8802 20.5311 21.3172 20.5311 21.8556V23.0475C20.5311 26.1459 17.9469 28.6667 14.7693 28.6667H8.44009C5.2573 28.6667 2.66666 26.1396 2.66666 23.0336C2.66666 22.4953 3.11466 22.0595 3.66655 22.0595C4.21845 22.0595 4.66645 22.4953 4.66645 23.0336C4.66645 25.0654 6.35979 26.716 8.44009 26.716H14.7693C16.8444 26.716 18.5313 25.0705 18.5313 23.0475V21.8556C18.5313 21.3172 18.9793 20.8802 19.5312 20.8802ZM28.3331 15.0237C28.7383 15.0237 29.1032 15.2618 29.2577 15.6279C29.4122 15.9927 29.3252 16.4132 29.0395 16.6919L25.2451 20.3768C25.049 20.5655 24.7945 20.6618 24.5387 20.6618C24.2829 20.6618 24.0258 20.5655 23.831 20.3743C23.4414 19.9917 23.4414 19.3748 23.8336 18.9948L25.9126 16.9757H12.7321C12.1802 16.9757 11.7309 16.5386 11.7309 16.0003C11.7309 15.4619 12.1802 15.0237 12.7321 15.0237H28.3331ZM14.7566 3.33337C17.9407 3.33337 20.5313 5.86048 20.5313 8.96647V10.1458C20.5313 10.6829 20.0833 11.1199 19.5314 11.1199C18.9795 11.1199 18.5315 10.6829 18.5315 10.1458V8.96647C18.5315 6.93465 16.8382 5.28412 14.7566 5.28412H8.42867C6.35355 5.28412 4.66671 6.93085 4.66671 8.95253V18.5986C4.66671 19.1369 4.21871 19.574 3.66681 19.574C3.11492 19.574 2.66692 19.1369 2.66692 18.5986V8.95253C2.66692 5.85414 5.25107 3.33337 8.42867 3.33337H14.7566ZM23.8284 11.6302C24.218 11.2452 24.8491 11.2426 25.2425 11.6226L26.1983 12.5448C26.5917 12.9248 26.5943 13.5417 26.2061 13.9243C26.01 14.1168 25.7529 14.2143 25.4958 14.2143C25.2412 14.2143 24.9867 14.1193 24.7919 13.9319L23.8349 13.0084C23.4427 12.6297 23.4401 12.0115 23.8284 11.6302Z" fill="black"/>
</svg>
