<svg width="78" height="61" viewBox="0 0 78 61" fill="none" xmlns="http://www.w3.org/2000/svg">
<path d="M8.54 7.2C9.996 7.2 11.172 7.352 12.068 7.656C12.98 7.944 13.644 8.448 14.06 9.168C14.492 9.872 14.708 10.856 14.708 12.12C14.708 12.888 14.604 13.568 14.396 14.16C14.204 14.736 13.876 15.2 13.412 15.552C12.948 15.904 12.316 16.128 11.516 16.224V16.344C11.804 16.392 12.1 16.504 12.404 16.68C12.724 16.856 13.02 17.12 13.292 17.472C13.564 17.808 13.764 18.264 13.892 18.84L15.332 24H11.468L10.196 18.96C10.052 18.416 9.836 18.04 9.548 17.832C9.276 17.624 8.892 17.52 8.396 17.52C7.308 17.52 6.388 17.52 5.636 17.52C4.9 17.504 4.276 17.488 3.764 17.472C3.268 17.456 2.82 17.44 2.42 17.424L2.492 14.76H8.468C9.108 14.76 9.612 14.696 9.98 14.568C10.364 14.424 10.628 14.176 10.772 13.824C10.932 13.472 11.012 12.984 11.012 12.36C11.012 11.72 10.932 11.232 10.772 10.896C10.628 10.544 10.364 10.304 9.98 10.176C9.612 10.032 9.108 9.96 8.468 9.96C6.964 9.96 5.692 9.968 4.652 9.984C3.612 10 2.9 10.024 2.516 10.056L2.156 7.44C2.828 7.36 3.46 7.304 4.052 7.272C4.644 7.24 5.292 7.224 5.996 7.224C6.7 7.208 7.548 7.2 8.54 7.2ZM5.78 7.44V24H2.156V7.44H5.78ZM23.1671 7.128C23.9831 7.128 24.8711 7.176 25.8311 7.272C26.7911 7.352 27.7271 7.528 28.6391 7.8L28.3991 10.224C27.6951 10.208 26.8711 10.192 25.9271 10.176C24.9831 10.16 24.0551 10.152 23.1431 10.152C22.6951 10.152 22.3111 10.168 21.9911 10.2C21.6871 10.216 21.4391 10.28 21.2471 10.392C21.0551 10.488 20.9191 10.64 20.8391 10.848C20.7591 11.056 20.7191 11.344 20.7191 11.712C20.7191 12.272 20.8471 12.68 21.1031 12.936C21.3751 13.192 21.8311 13.424 22.4711 13.632L25.6631 14.664C26.9911 15.112 27.9111 15.72 28.4231 16.488C28.9351 17.256 29.1911 18.264 29.1911 19.512C29.1911 20.456 29.0791 21.24 28.8551 21.864C28.6311 22.488 28.2791 22.976 27.7991 23.328C27.3191 23.68 26.6871 23.928 25.9031 24.072C25.1191 24.232 24.1591 24.312 23.0231 24.312C22.4791 24.312 21.7031 24.272 20.6951 24.192C19.6871 24.128 18.5351 23.952 17.2391 23.664L17.4791 21.072C18.4231 21.088 19.2391 21.112 19.9271 21.144C20.6311 21.16 21.2311 21.176 21.7271 21.192C22.2231 21.192 22.6551 21.192 23.0231 21.192C23.6631 21.192 24.1591 21.152 24.5111 21.072C24.8791 20.992 25.1351 20.832 25.2791 20.592C25.4231 20.352 25.4951 20.008 25.4951 19.56C25.4951 19.176 25.4391 18.872 25.3271 18.648C25.2311 18.408 25.0631 18.224 24.8231 18.096C24.5991 17.952 24.2871 17.824 23.8871 17.712L20.5271 16.56C19.2631 16.096 18.3671 15.488 17.8391 14.736C17.3111 13.984 17.0471 12.992 17.0471 11.76C17.0471 10.8 17.1591 10.024 17.3831 9.432C17.6231 8.824 17.9831 8.352 18.4631 8.016C18.9591 7.68 19.5911 7.448 20.3591 7.32C21.1431 7.192 22.0791 7.128 23.1671 7.128Z" fill="black"/>
<path d="M7.04 28.92V45.432C7.04 45.9653 7.18933 46.3707 7.488 46.648C7.78667 46.9253 8.21333 47.064 8.768 47.064H16.48L16.704 50.744C15.1893 50.9147 13.6 51.0107 11.936 51.032C10.2933 51.0747 8.65067 51.096 7.008 51.096C5.408 51.096 4.192 50.6693 3.36 49.816C2.54933 48.9413 2.144 47.832 2.144 46.488V28.92H7.04ZM27.4283 34.776C28.7509 34.776 29.8709 34.9573 30.7883 35.32C31.7056 35.6613 32.3989 36.2587 32.8683 37.112C33.3589 37.944 33.6042 39.096 33.6042 40.568V51H29.8283L29.1563 47.576L28.8363 47.096V40.536C28.8363 39.7893 28.6549 39.2453 28.2923 38.904C27.9509 38.5627 27.2896 38.392 26.3083 38.392C25.4976 38.392 24.4843 38.424 23.2683 38.488C22.0523 38.5307 20.8043 38.5947 19.5243 38.68L19.0763 35.544C19.8443 35.3947 20.7296 35.2667 21.7323 35.16C22.7349 35.0533 23.7376 34.968 24.7403 34.904C25.7429 34.8187 26.6389 34.776 27.4283 34.776ZM31.6523 41.272L31.6203 43.928L24.5803 43.96C24.0043 43.96 23.5883 44.0987 23.3323 44.376C23.0976 44.6533 22.9803 45.0267 22.9803 45.496V46.264C22.9803 46.7973 23.1296 47.2133 23.4283 47.512C23.7269 47.7893 24.2069 47.928 24.8683 47.928C25.4229 47.928 26.0203 47.8107 26.6603 47.576C27.3216 47.3413 27.9723 47.0107 28.6123 46.584C29.2523 46.1573 29.8176 45.656 30.3083 45.08V47.128C30.1163 47.448 29.8283 47.8533 29.4443 48.344C29.0816 48.8133 28.6123 49.2827 28.0363 49.752C27.4603 50.2 26.7883 50.584 26.0203 50.904C25.2523 51.224 24.3776 51.384 23.3963 51.384C22.4363 51.384 21.5723 51.2133 20.8043 50.872C20.0363 50.5307 19.4283 50.0293 18.9803 49.368C18.5323 48.7067 18.3083 47.8853 18.3083 46.904V45.272C18.3083 44.0133 18.7349 43.032 19.5883 42.328C20.4416 41.624 21.6149 41.272 23.1083 41.272H31.6523ZM48.3343 34.776C51.3209 34.776 52.8143 36.2373 52.8143 39.16V51H48.0783V40.632C48.0783 39.928 47.9503 39.448 47.6943 39.192C47.4383 38.9147 47.0009 38.776 46.3823 38.776C45.6996 38.776 44.9956 38.9147 44.2703 39.192C43.5449 39.448 42.6489 39.8533 41.5823 40.408L41.3583 37.752C42.4889 36.792 43.6409 36.056 44.8142 35.544C46.0089 35.032 47.1823 34.776 48.3343 34.776ZM41.1343 35.192L41.6783 38.328L42.0623 38.744V51H37.3263V35.192H41.1343ZM63.585 34.776C65.4197 34.776 66.8703 34.9467 67.937 35.288C69.025 35.6293 69.8037 36.1627 70.273 36.888C70.7637 37.6133 71.009 38.584 71.009 39.8C71.009 40.9733 70.7743 41.9333 70.305 42.68C69.8357 43.4053 69.0463 43.9387 67.937 44.28C66.849 44.6213 65.3877 44.792 63.553 44.792C61.7183 44.792 60.2463 44.6213 59.137 44.28C58.049 43.9387 57.2597 43.4053 56.769 42.68C56.2997 41.9547 56.065 40.9947 56.065 39.8C56.065 38.6053 56.2997 37.6453 56.769 36.92C57.2597 36.1733 58.0597 35.6293 59.169 35.288C60.2783 34.9467 61.7503 34.776 63.585 34.776ZM63.553 37.688C62.3797 37.688 61.569 37.848 61.121 38.168C60.673 38.4667 60.449 39.0107 60.449 39.8C60.449 40.5893 60.673 41.144 61.121 41.464C61.569 41.784 62.3797 41.944 63.553 41.944C64.7263 41.944 65.5263 41.784 65.953 41.464C66.3797 41.144 66.593 40.5893 66.593 39.8C66.593 39.0107 66.3797 38.4667 65.953 38.168C65.5263 37.848 64.7263 37.688 63.553 37.688ZM72.833 35.192L72.577 37.208L68.353 37.752L67.201 35.192H72.833ZM58.785 43.832L61.153 44.248C60.8543 44.4187 60.641 44.6853 60.513 45.048C60.4063 45.4107 60.4383 45.752 60.609 46.072C60.7797 46.392 61.153 46.584 61.729 46.648L67.553 47.32C69.217 47.4907 70.3903 47.96 71.073 48.728C71.7557 49.4747 72.097 50.5733 72.097 52.024C72.097 53.3893 71.8197 54.4347 71.265 55.16C70.7103 55.9067 69.825 56.4187 68.609 56.696C67.393 56.9733 65.7717 57.112 63.745 57.112C62.081 57.112 60.705 57.0267 59.617 56.856C58.5503 56.7067 57.697 56.4507 57.057 56.088C56.4383 55.7253 56.001 55.2453 55.745 54.648C55.5103 54.072 55.393 53.3467 55.393 52.472C55.393 51.8107 55.5103 51.2453 55.745 50.776C55.9797 50.2853 56.3743 49.848 56.929 49.464C57.505 49.08 58.305 48.728 59.329 48.408L61.665 47.576L63.361 48.248L62.081 49.08C61.5477 49.464 61.1103 49.7947 60.769 50.072C60.449 50.328 60.2143 50.584 60.065 50.84C59.937 51.096 59.873 51.4373 59.873 51.864C59.873 52.3547 59.9797 52.728 60.193 52.984C60.4063 53.2613 60.7903 53.4427 61.345 53.528C61.921 53.6347 62.6997 53.688 63.681 53.688C64.705 53.688 65.505 53.6347 66.081 53.528C66.657 53.4427 67.0517 53.272 67.265 53.016C67.4997 52.76 67.617 52.3973 67.617 51.928C67.617 51.5227 67.5317 51.224 67.361 51.032C67.2117 50.84 66.945 50.7013 66.561 50.616C66.1983 50.5093 65.6863 50.4133 65.025 50.328L60.065 49.784C59.233 49.6987 58.5823 49.4747 58.113 49.112C57.6437 48.7493 57.313 48.312 57.121 47.8C56.9503 47.2667 56.9077 46.7333 56.993 46.2C57.0783 45.6667 57.2703 45.1867 57.569 44.76C57.889 44.3333 58.2943 44.024 58.785 43.832Z" fill="black"/>
</svg>
