<svg width="40" height="40" viewBox="0 0 40 40" fill="none" xmlns="http://www.w3.org/2000/svg">
<path d="M29.4285 10.5717C29.1372 10.2552 28.9796 9.83846 28.9885 9.40847C28.9974 8.97849 29.1722 8.5686 29.4763 8.26449C29.7804 7.96038 30.1903 7.7856 30.6203 7.77669C31.0503 7.76778 31.4671 7.92543 31.7835 8.21668C38.2918 14.725 38.2918 25.2784 31.7835 31.7867C31.4692 32.0903 31.0482 32.2583 30.6112 32.2545C30.1742 32.2507 29.7561 32.0754 29.4471 31.7664C29.1381 31.4574 28.9628 31.0393 28.959 30.6024C28.9552 30.1654 29.1232 29.7444 29.4268 29.43C30.665 28.1919 31.6472 26.722 32.3173 25.1043C32.9874 23.4866 33.3323 21.7527 33.3323 20.0017C33.3323 18.2507 32.9874 16.5168 32.3173 14.8991C31.6472 13.2814 30.665 11.8115 29.4268 10.5734L29.4285 10.5717ZM24.7135 15.2867C24.4008 14.974 24.2251 14.5498 24.2251 14.1075C24.2251 13.8885 24.2682 13.6717 24.352 13.4694C24.4358 13.267 24.5586 13.0832 24.7135 12.9284C24.8683 12.7735 25.0522 12.6507 25.2545 12.5669C25.4568 12.4831 25.6737 12.4399 25.8927 12.4399C26.3349 12.4399 26.7591 12.6156 27.0718 12.9284C28.0006 13.857 28.7373 14.9594 29.24 16.1728C29.7426 17.3862 30.0014 18.6867 30.0014 20C30.0014 21.3134 29.7426 22.6139 29.24 23.8272C28.7373 25.0406 28.0006 26.1431 27.0718 27.0717C26.7591 27.3844 26.3349 27.5601 25.8927 27.5601C25.4504 27.5601 25.0262 27.3844 24.7135 27.0717C24.4008 26.759 24.2251 26.3348 24.2251 25.8925C24.2251 25.4502 24.4008 25.0261 24.7135 24.7134C25.9633 23.4632 26.6654 21.7678 26.6654 20C26.6654 18.2323 25.9633 16.5369 24.7135 15.2867V15.2867ZM6.66683 16.6667V25C6.66683 25.442 6.49123 25.866 6.17867 26.1785C5.86611 26.4911 5.44219 26.6667 5.00016 26.6667C4.55814 26.6667 4.13421 26.4911 3.82165 26.1785C3.50909 25.866 3.3335 25.442 3.3335 25V15C3.3335 14.558 3.50909 14.1341 3.82165 13.8215C4.13421 13.5089 4.55814 13.3334 5.00016 13.3334H9.41683L17.2918 7.03335C17.5369 6.83716 17.8323 6.71415 18.1442 6.67851C18.4561 6.64286 18.7717 6.69601 19.0547 6.83185C19.3377 6.96769 19.5766 7.18069 19.7439 7.44633C19.9111 7.71197 20 8.01944 20.0002 8.33335V31.6667C20 31.9806 19.9111 32.2881 19.7439 32.5537C19.5766 32.8193 19.3377 33.0323 19.0547 33.1682C18.7717 33.304 18.4561 33.3572 18.1442 33.3215C17.8323 33.2859 17.5369 33.1629 17.2918 32.9667L8.9585 26.3C8.78 26.1659 8.63027 25.9973 8.51818 25.8043C8.40609 25.6112 8.33393 25.3976 8.30599 25.1761C8.27805 24.9546 8.29489 24.7297 8.35552 24.5149C8.41614 24.3 8.51932 24.0995 8.65892 23.9253C8.79852 23.7511 8.97169 23.6067 9.16817 23.5007C9.36465 23.3947 9.58042 23.3292 9.80268 23.3082C10.0249 23.2872 10.2492 23.3111 10.462 23.3784C10.6749 23.4457 10.8721 23.555 11.0418 23.7L16.6668 28.2V11.8L11.0418 16.3C10.7464 16.5371 10.379 16.6664 10.0002 16.6667H6.66683Z" fill="black"/>
</svg>
