<?xml version="1.0" encoding="iso-8859-1"?>
<!-- Generator: Adobe Illustrator 19.0.0, SVG Export Plug-In . SVG Version: 6.00 Build 0)  -->
<svg version="1.1" id="Capa_1" xmlns="http://www.w3.org/2000/svg" xmlns:xlink="http://www.w3.org/1999/xlink" x="0px" y="0px"
	 viewBox="0 0 110 110" style="enable-background:new 0 0 110 110;" xml:space="preserve">
<g id="_x0A_chart01">
	<g>
		<path style="fill-rule:evenodd;clip-rule:evenodd;" d="M108.876,88.657c-0.315-0.233-0.687-0.497-1.053-0.535
			c-1.933-0.198-3.588-1.175-5.345-1.852c-2.154-0.83-4.379-1.321-6.657-1.609c-0.282-0.036-0.586,0.013-0.869,0.074
			c-0.857,0.188-1.263,1.191-0.752,1.873c0.237,0.316,0.488,0.652,0.809,0.867c1.24,0.832,2.469,1.689,3.913,2.156
			c0.757,0.244,1.501,0.532,2.247,0.807c0.086,0.032,0.223,0.159,0.217,0.169c-0.103,0.167-0.19,0.393-0.345,0.467
			c-0.625,0.304-1.275,0.549-1.91,0.833c-0.435,0.194-0.791,0.092-1.011-0.307c-0.819-1.48-2.047-1.991-3.731-1.911
			c-2.09,0.097-4.19-0.086-6.284-0.061c-3.293,0.04-6.596,0.002-9.873,0.263c-5.365,0.43-10.732,0.78-16.11,0.936
			c-2.992,0.086-5.986,0.061-8.98,0.086c-0.698,0.006-1.397,0.015-2.096,0c-1.11-0.021-1.173-0.107-1.019-1.126
			c0.24-1.575,0.574-3.146,0.678-4.73c0.256-3.879,0.509-7.762,0.573-11.649c0.104-6.384,0.103-12.771,0.043-19.157
			c-0.015-1.611,0.239-2.941,1.618-3.907c0.488-0.343,0.925-0.757,1.396-1.124c0.256-0.201,0.659-0.061,0.678,0.226
			c0.025,0.395,0.066,0.793,0.043,1.185c-0.164,2.586-0.458,5.167-0.497,7.754c-0.119,7.981-0.147,15.963-0.198,23.946
			c-0.014,2.11,0.553,4.14,0.935,6.192c0.051,0.279,0.254,0.532,0.403,0.788c0.042,0.071,0.156,0.163,0.211,0.148
			c0.084-0.022,0.171-0.118,0.209-0.203c0.156-0.365,0.353-0.726,0.431-1.108c0.761-3.711,1.508-7.42,1.509-11.235
			c0.001-1.894-0.043-3.804,0.152-5.683c0.375-3.589,0.393-7.191,0.146-10.759c-0.241-3.488-0.212-6.976-0.392-10.458
			c-0.047-0.896-0.017-1.795,0.012-2.691c0.005-0.153,0.176-0.311,0.3-0.439c0.028-0.028,0.203,0.034,0.268,0.098
			c0.856,0.834,1.74,1.646,2.548,2.526c0.764,0.833,1.183,1.812,1.06,3c-0.183,1.784-0.409,3.572-0.424,5.358
			c-0.068,7.883-0.109,15.766-0.061,23.649c0.011,1.778,0.404,3.557,0.666,5.327c0.072,0.486,0.303,0.948,0.478,1.415
			c0.179,0.479,0.447,0.98,1.017,0.877c0.316-0.057,0.718-0.421,0.823-0.734c0.406-1.222,0.897-2.46,1.012-3.724
			c0.281-3.076,0.478-6.167,0.515-9.253c0.086-7.376-0.14-14.747-0.833-22.1c-0.029-0.311,0.261-0.87,0.518-0.953
			c1.141-0.363,1.823-1.055,2.253-2.18c0.412-1.077,1.438-1.599,2.439-2.075c0.256-0.122,0.397-0.059,0.432,0.218
			c0.037,0.294,0.097,0.59,0.098,0.884c0.034,8.382,0.138,16.765,0.049,25.146c-0.036,3.376-0.499,6.752-0.772,10.128
			c-0.032,0.395-0.149,0.789-0.134,1.181c0.025,0.7,0.812,1.493,1.547,1.632c0.806,0.152,1.595-0.279,1.85-1.145
			c0.224-0.756,0.361-1.55,0.432-2.336c0.128-1.39,0.088-2.799,0.275-4.181c0.579-4.253,0.784-8.538,0.882-12.812
			c0.152-6.577,0.192-13.161-0.364-19.734c-0.27-3.206-0.129-3.217,2.225-5.373c0.073-0.066,0.139-0.148,0.222-0.199
			c0.411-0.256,0.826-0.506,1.24-0.757c0.511,0.527,0.192,1.101,0.104,1.668c-0.076,0.49-0.154,0.985-0.177,1.481
			c-0.233,5.18-0.502,10.358-0.669,15.538c-0.131,4.089-0.166,8.183-0.183,12.274c-0.013,2.892,0.09,5.784,0.11,8.68
			c0.011,1.416,0.313,2.771,0.743,4.102c0.292,0.906,0.941,1.579,1.319,1.427c0.609-0.249,0.875-0.783,1.074-1.359
			c0.658-1.901,0.889-3.891,0.96-5.873c0.249-6.976,0.466-13.955,0.586-20.935c0.103-6.085,0.057-12.174,0.076-18.262
			c0.002-0.697-0.038-1.4,0.02-2.093c0.031-0.379,0.115-0.859,0.363-1.099c1.211-1.173,2.482-2.287,3.752-3.397
			c0.05-0.045,0.414,0.115,0.439,0.224c0.089,0.376,0.138,0.776,0.12,1.162c-0.094,1.99-0.286,3.977-0.308,5.966
			c-0.057,4.889-0.054,9.78-0.047,14.668c0.007,4.99,0.173,9.983,0.042,14.968c-0.132,4.994,0.746,9.951,0.361,14.942
			c-0.007,0.098,0.008,0.199,0.019,0.297c0.077,0.682,0.792,1.188,1.538,1.089c0.819-0.108,1.367-0.64,1.488-1.621
			c0.304-2.47,0.757-4.915,0.746-7.429c-0.064-13.571-0.07-27.142-0.106-40.712c-0.004-1.696-0.008-3.397-0.121-5.087
			c-0.099-1.493-0.262-2.953,0.349-4.399c0.306-0.721-0.094-1.388-0.658-1.843c-0.655-0.527-1.418-0.759-2.212-0.245
			c-1.003,0.648-2.039,1.258-2.986,1.981c-4.534,3.474-8.438,7.626-12.275,11.813c-2.16,2.356-4.52,4.504-6.67,6.86
			c-0.414,0.455-0.891,0.402-1.262-0.056c-1.131-1.393-2.241-2.805-3.396-4.178c-0.846-1.004-1.877-1.805-3.114-2.264
			c-1.409-0.524-2.706-0.442-3.818,0.781c-1.743,1.919-3.556,3.776-5.33,5.668c-2.182,2.327-4.313,4.705-6.552,6.977
			c-0.886,0.899-1.658,2.003-2.974,2.393c-0.826-0.707-1.676-1.389-2.473-2.126c-1.311-1.21-3.017-1.915-4.164-3.349
			c-0.26-0.324-0.879-0.438-1.351-0.497c-0.86-0.106-1.482,0.389-2.095,0.953c-1.907,1.755-3.812,3.517-5.794,5.186
			c-2.287,1.927-4.651,3.76-6.989,5.626c-0.405,0.322-0.839,0.161-0.891-0.3c-0.024-0.198-0.043-0.397-0.05-0.596
			c-0.199-5.581-0.396-11.16-0.622-17.573c-0.214-4.347-0.465-9.525-0.73-14.703c-0.026-0.494-0.149-0.983-0.21-1.479
			c-0.086-0.705,0.039-0.812,0.816-0.731c1.993,0.207,2.898-0.635,2.637-2.467c-0.058-0.393-0.148-0.786-0.266-1.164
			c-0.74-2.377-1.599-4.723-2.208-7.129c-0.598-2.371-1.868-4.603-1.396-7.228c0.205-1.143-0.938-2.277-2.119-2.546
			C10.929,4.508,9.75,5.013,9.207,6.056c-0.363,0.7-0.701,1.46-0.831,2.23c-0.615,3.645-1.723,7.155-2.775,10.685
			c-0.219,0.74-0.31,1.584-0.198,2.343c0.308,2.117,1.407,2.718,3.612,2.13c0.096-0.025,0.208-0.14,0.268-0.113
			c0.232,0.109,0.599,0.221,0.638,0.395c0.109,0.478,0.092,0.987,0.101,1.483c0.14,7.678,0.13,15.355,0.481,23.032
			c0.501,10.961,0.053,21.947,0.661,32.91c0.051,0.91-0.007,1.788-0.468,2.608c-0.503,0.897-0.604,1.89-0.627,2.896
			c-0.015,0.599-0.023,1.196-0.04,1.796c-0.057,2.169-0.123,2.248-2.148,2.289c-1.396,0.028-2.794,0.056-4.19,0.031
			c-1.428-0.024-2.466,0.644-3.332,1.699c-0.515,0.626-0.467,1.28,0.098,1.86c0.607,0.624,1.347,0.808,2.175,0.802
			c1.895-0.01,3.791-0.03,5.687-0.013c1.004,0.009,1.265,0.266,1.277,1.217c0.02,1.696-0.007,3.392,0.007,5.088
			c0.005,0.595,0.001,1.205,0.121,1.782c0.286,1.385,1.206,2.125,2.503,2.103c1.186-0.018,2.011-0.667,2.345-1.921
			c0.127-0.475,0.171-0.982,0.183-1.476c0.027-1.097,0-2.194,0.011-3.291c0.008-0.896,0.004-1.793,0.089-2.681
			c0.021-0.209,0.374-0.547,0.578-0.552c0.792-0.014,1.586,0.12,2.38,0.127c4.39,0.047,8.782,0.139,13.171,0.094
			c14.062-0.144,28.133,0.589,42.186-0.495c4.173-0.322,8.34-0.751,12.535-0.766c2.09-0.007,4.178-0.199,6.268-0.286
			c0.797-0.033,1.595-0.023,2.393-0.004c0.458,0.011,0.72,0.279,0.705,0.748c-0.007,0.195-0.111,0.387-0.13,0.582
			c-0.185,1.86,0.765,2.956,2.492,2.82c0.588-0.046,1.214-0.137,1.738-0.386c2.965-1.412,6.102-2.485,8.809-4.41
			c0.405-0.288,0.856-0.529,1.204-0.877C110.382,91.336,110.246,89.674,108.876,88.657z M27.498,86.707
			c0.003,0.893,0.125,1.787,0.186,2.68c0.031,0.45,0.594,0.938,0.033,1.329c-0.293,0.203-0.746,0.226-1.128,0.232
			c-1.597,0.024-3.194,0.009-4.791,0.009v-0.082c-1.796,0-3.593,0.019-5.389-0.008c-0.759-0.013-1.022-0.364-0.985-1.15
			c0.008-0.199,0.017-0.4,0.049-0.596c0.96-5.745,0.563-11.544,0.698-17.321c0.02-0.897-0.002-1.796,0.005-2.695
			c0.004-0.628,0.172-1.17,0.792-1.483c0.792-0.398,1.575-0.815,2.362-1.227c0.779,0.861,0.362,1.887,0.336,2.83
			c-0.123,4.486-0.31,8.968-0.462,13.452c-0.024,0.697-0.084,1.418,0.057,2.089c0.116,0.551,0.41,1.131,0.792,1.547
			c0.764,0.833,2.336,0.523,2.743-0.519c0.212-0.541,0.358-1.151,0.349-1.729c-0.044-3.387,0.059-6.771-0.275-10.163
			c-0.302-3.07-0.219-6.18-0.318-9.273c-0.025-0.759,0.266-1.33,0.844-1.814c1.301-1.087,2.575-2.207,3.871-3.3
			c0.142-0.12,0.359-0.151,0.54-0.223c0.096,0.265,0.278,0.534,0.273,0.797c-0.035,1.896-0.086,3.793-0.176,5.687
			c-0.112,2.387-0.349,4.773-0.383,7.161C27.454,77.524,27.483,82.115,27.498,86.707z M34.205,60.997
			c-0.181,3.383-0.16,6.776-0.221,10.166c0,2.293,0.012,4.585-0.003,6.879c-0.015,2.189-0.049,4.37-0.311,6.558
			c-0.222,1.86-0.364,3.773,0.069,5.653c0.034,0.146-0.025,0.439-0.115,0.474c-0.953,0.36-1.925,0.354-2.878,0.004
			c-0.123-0.044-0.267-0.322-0.239-0.459c0.8-3.946,0.489-7.943,0.458-11.916c-0.034-4.379-0.299-8.756-0.438-13.134
			c-0.053-1.693-0.038-3.389-0.05-5.084c-0.007-0.895,0.034-1.78-0.459-2.608c-0.319-0.541,0.097-0.915,0.503-1.222
			c0.498-0.373,0.928-0.168,1.32,0.192c0.294,0.269,0.55,0.582,0.858,0.831C33.879,58.282,34.288,59.449,34.205,60.997z
			 M47.651,59.642c-0.131,1.585-0.298,3.166-0.468,4.747c-0.522,4.858-0.502,9.741-0.693,14.616
			c-0.042,1.091-0.207,2.177-0.309,3.265c-0.198,2.104,0.321,4.163,0.387,6.247c0.023,0.751,0.795,1.673,0.084,2.176
			c-0.553,0.391-1.521,0.228-2.307,0.243c-1.792,0.031-3.587,0.029-5.38,0.021c-1.541-0.008-1.501-0.017-1.414-1.802
			c0.088-1.791,0.116-3.586,0.118-5.379c0.004-6.177-0.014-12.354-0.025-18.53c0-0.797-0.031-1.596,0.013-2.389
			c0.014-0.233,0.111-0.626,0.553-0.428c0.18,0.079,0.353,0.181,0.537,0.255c0.723,0.296,1.674,0.395,2.123,0.923
			c0.665,0.781,0.321,1.932,0.183,2.882c-0.419,2.875-0.284,5.767-0.439,8.647c-0.113,2.084-0.304,4.166-0.385,6.252
			c-0.082,2.081-0.362,4.182,0.383,6.216c0.237,0.644,0.675,0.974,1.334,0.997c0.65,0.024,1.171-0.222,1.49-0.792
			c0.192-0.346,0.374-0.718,0.453-1.101c0.16-0.776,0.251-1.567,0.364-2.354c0.679-4.75,0.574-9.532,0.646-14.312
			c-0.064-3.286-0.096-6.574-0.21-9.859c-0.039-1.09,0.222-1.93,1.135-2.573c0.484-0.342,0.875-0.812,1.337-1.189
			c0.104-0.085,0.334-0.044,0.496-0.013c0.061,0.013,0.134,0.168,0.132,0.254C47.752,57.658,47.733,58.652,47.651,59.642z"/>
	</g>
</g>
<g>
</g>
<g>
</g>
<g>
</g>
<g>
</g>
<g>
</g>
<g>
</g>
<g>
</g>
<g>
</g>
<g>
</g>
<g>
</g>
<g>
</g>
<g>
</g>
<g>
</g>
<g>
</g>
<g>
</g>
</svg>
