<svg width="24" height="24" viewBox="0 0 24 24" fill="none" xmlns="http://www.w3.org/2000/svg">
<path d="M5.47679 15.5157C3.58517 14.639 2.39999 13.3862 2.39999 11.9947C2.39999 9.75944 5.46172 7.88616 9.59993 7.35296V4.93945C4.12262 5.60687 0 8.51196 0 11.9947C0 14.0029 1.37335 15.8134 3.58276 17.1176C6.00005 18.5953 7.19995 16.1954 5.47679 15.5157ZM19.888 6.57768C18.6002 5.39524 16.8001 7.19527 18.0277 8.25936C20.2063 9.13949 21.6001 10.486 21.6001 11.9947C21.6001 14.2312 18.5379 16.1047 14.4001 16.6377V19.0501C19.8774 18.3838 24 15.4789 24 11.9947C24 9.83204 22.4046 7.89606 19.888 6.57768ZM10.6603 8.98244L14.5665 6.64343C15.1348 6.30304 15.136 5.74863 14.5696 5.40585L10.6273 3.01991C10.0602 2.67764 9.60248 2.93618 9.60525 3.5988L9.62648 8.39879C9.6282 9.06156 10.0913 9.32286 10.6603 8.98244ZM13.373 15.02L9.4308 17.4058C8.86387 17.7485 8.86508 18.303 9.43403 18.6435L13.3397 20.9825C13.908 21.3223 14.3722 21.0616 14.3751 20.3983L14.3957 15.5984C14.3977 14.9361 13.9395 14.6779 13.373 15.02Z" fill="black"/>
</svg>
